<?xml version="1.0" standalone="no"?>
<!DOCTYPE svg PUBLIC "-//W3C//DTD SVG 20010904//EN"
 "http://www.w3.org/TR/2001/REC-SVG-20010904/DTD/svg10.dtd">
<svg version="1.0" xmlns="http://www.w3.org/2000/svg"
 width="512.000000pt" height="512.000000pt" viewBox="0 0 512.000000 512.000000"
 preserveAspectRatio="xMidYMid meet">
<metadata>
Created by potrace 1.14, written by Peter Selinger 2001-2017
</metadata>
<g transform="translate(0.000000,512.000000) scale(0.100000,-0.100000)"
fill="#000000" stroke="none">
<path d="M3200 4480 l0 -640 -320 0 -320 0 0 -320 0 -320 -320 0 -320 0 0
-320 0 -320 -320 0 -320 0 0 -320 0 -320 -640 0 -640 0 0 -640 0 -640 320 0
320 0 0 -320 0 -320 640 0 640 0 0 640 0 640 320 0 320 0 0 320 0 320 320 0
320 0 0 320 0 320 320 0 320 0 0 320 0 320 640 0 640 0 0 640 0 640 -320 0
-320 0 0 320 0 320 -640 0 -640 0 0 -640z m1280 -320 l0 -320 -320 0 -320 0 0
320 0 320 320 0 320 0 0 -320z m-3200 -3200 l0 -320 -320 0 -320 0 0 320 0
320 320 0 320 0 0 -320z"/>
</g>
</svg>
